<svg width="535" height="115" viewBox="0 0 535 115" fill="none" xmlns="http://www.w3.org/2000/svg">
<path d="M47.9531 51.8594C47.5781 50.5469 47.2031 49.4219 46.8281 48.4844C46.4531 47.5 46.0547 46.6328 45.6328 45.8828C45.2578 45.0859 44.8125 44.3828 44.2969 43.7734C43.8281 43.1641 43.2656 42.5312 42.6094 41.875C41.0156 40.2344 39.1875 39.0156 37.125 38.2188C35.1094 37.375 32.9531 36.9531 30.6562 36.9531C27.75 36.9531 25.1016 37.5156 22.7109 38.6406C20.3672 39.7656 18.3516 41.3828 16.6641 43.4922C15.0234 45.5547 13.7578 48.0625 12.8672 51.0156C11.9766 53.9688 11.5312 57.25 11.5312 60.8594C11.5312 65.5469 12.1641 69.6484 13.4297 73.1641C14.6953 76.6797 16.5 79.4219 18.8438 81.3906C22.3594 84.2031 26.5547 85.6094 31.4297 85.6094C34.7578 85.6094 37.8281 84.9766 40.6406 83.7109C43.4531 82.4453 46.3594 80.3828 49.3594 77.5234L50.7656 78.9297C48.3281 82.1641 45.2109 84.6719 41.4141 86.4531C37.6641 88.2344 33.4922 89.125 28.8984 89.125C24.9141 89.125 21.2812 88.4688 18 87.1562C14.7188 85.8438 11.9062 84.0156 9.5625 81.6719C7.21875 79.2812 5.39062 76.4219 4.07812 73.0938C2.8125 69.7656 2.17969 66.0625 2.17969 61.9844C2.17969 57.3438 2.97656 53.1719 4.57031 49.4688C6.16406 45.7188 8.50781 42.5781 11.6016 40.0469C14.0391 38.0781 16.7812 36.5547 19.8281 35.4766C22.875 34.3516 25.9453 33.7891 29.0391 33.7891C33.0234 33.7891 36.9609 34.4453 40.8516 35.7578C42.1641 36.2266 43.2188 36.4609 44.0156 36.4609C44.8125 36.4609 45.4922 36.2266 46.0547 35.7578C46.6641 35.2891 47.0859 34.6328 47.3203 33.7891H49.0078L49.7812 51.8594H47.9531Z" fill="black"/>
<path d="M321.562 69.5078C321.328 67.9141 321.023 66.625 320.648 65.6406C320.32 64.6094 319.828 63.8125 319.172 63.25C318.562 62.6875 317.719 62.3125 316.641 62.125C315.609 61.8906 314.297 61.7734 312.703 61.7734H301.102V79.3516C301.102 80.7578 301.172 81.9062 301.312 82.7969C301.5 83.6875 301.852 84.4141 302.367 84.9766C302.93 85.4922 303.68 85.8672 304.617 86.1016C305.602 86.2891 306.867 86.4297 308.414 86.5234V88H285.984V86.5234C287.484 86.4297 288.68 86.2656 289.57 86.0312C290.508 85.7969 291.211 85.3984 291.68 84.8359C292.195 84.2266 292.523 83.4297 292.664 82.4453C292.852 81.4141 292.945 80.0547 292.945 78.3672V43.6328C292.945 42.2266 292.852 41.0781 292.664 40.1875C292.523 39.2969 292.195 38.5938 291.68 38.0781C291.164 37.5625 290.438 37.1875 289.5 36.9531C288.609 36.7188 287.438 36.5547 285.984 36.4609V34.8438H328.594L328.734 46.375H326.836C326.461 44.5469 326.039 43.0938 325.57 42.0156C325.102 40.8906 324.422 40.0234 323.531 39.4141C322.688 38.8047 321.539 38.4062 320.086 38.2188C318.68 38.0312 316.852 37.9375 314.602 37.9375H303.703C302.578 37.9375 301.852 38.1016 301.523 38.4297C301.242 38.7578 301.102 39.5078 301.102 40.6797V58.4688H312.703C314.297 58.4688 315.609 58.375 316.641 58.1875C317.719 58 318.562 57.625 319.172 57.0625C319.828 56.5 320.32 55.7266 320.648 54.7422C321.023 53.7578 321.328 52.4688 321.562 50.875H323.461V69.5078H321.562Z" fill="black"/>
<path d="M89.0156 73.7188L86.3906 83H57.6562V82.0156C58.625 81.9531 59.4062 81.8438 60 81.6875C60.625 81.5312 61.0938 81.2812 61.4062 80.9375C61.75 80.5938 61.9844 80.125 62.1094 79.5312C62.2344 78.9375 62.2969 78.1719 62.2969 77.2344V53.4219C62.2969 52.4844 62.2344 51.7188 62.1094 51.125C62.0156 50.5312 61.7969 50.0625 61.4531 49.7188C61.1094 49.375 60.625 49.125 60 48.9688C59.4062 48.8125 58.625 48.7031 57.6562 48.6406V47.5625H72.7031V48.6406C71.6406 48.7031 70.7812 48.8125 70.125 48.9688C69.4688 49.0938 68.9688 49.3438 68.625 49.7188C68.2812 50.0625 68.0469 50.5312 67.9219 51.125C67.7969 51.7188 67.7344 52.4844 67.7344 53.4219V78.7344C67.7344 79.2031 67.7812 79.5938 67.875 79.9062C68 80.1875 68.2344 80.4062 68.5781 80.5625C68.9219 80.7188 69.3906 80.8281 69.9844 80.8906C70.5781 80.9219 71.375 80.9375 72.375 80.9375H75.9375C78.2188 80.9375 80.1094 80.6719 81.6094 80.1406C83.1406 79.6094 84.3906 78.7969 85.3594 77.7031C85.7344 77.2656 86.0938 76.7188 86.4375 76.0625C86.8125 75.4062 87.2188 74.625 87.6562 73.7188H89.0156ZM119.203 83H90.3281V82.0156C91.2969 81.9531 92.0781 81.8438 92.6719 81.6875C93.2969 81.5312 93.7656 81.2812 94.0781 80.9375C94.4219 80.5938 94.6562 80.125 94.7812 79.5312C94.9062 78.9375 94.9688 78.1719 94.9688 77.2344V53.4219C94.9688 52.4844 94.9062 51.7188 94.7812 51.125C94.6875 50.5312 94.4688 50.0625 94.125 49.7188C93.7812 49.375 93.2969 49.125 92.6719 48.9688C92.0781 48.8125 91.2969 48.7031 90.3281 48.6406V47.5625H118.734L118.828 55.25H117.562C117.312 54.0312 117.031 53.0625 116.719 52.3438C116.406 51.5938 115.953 51.0156 115.359 50.6094C114.797 50.2031 114.031 49.9375 113.062 49.8125C112.125 49.6875 110.906 49.625 109.406 49.625H102.188C101.469 49.625 100.984 49.7344 100.734 49.9531C100.516 50.1719 100.406 50.6719 100.406 51.4531V63.3125H108.609C109.703 63.3125 110.594 63.25 111.281 63.125C111.969 63 112.516 62.7656 112.922 62.4219C113.359 62.0469 113.688 61.5312 113.906 60.875C114.125 60.2188 114.328 59.3438 114.516 58.25H115.781V70.6719H114.516C114.328 69.5469 114.125 68.6562 113.906 68C113.688 67.3125 113.375 66.7969 112.969 66.4531C112.562 66.0781 112.016 65.8281 111.328 65.7031C110.641 65.5781 109.734 65.5156 108.609 65.5156H100.406V78.7344C100.406 79.2656 100.438 79.6562 100.5 79.9062C100.562 80.1562 100.672 80.3438 100.828 80.4688C101.078 80.625 101.672 80.7656 102.609 80.8906C103.578 80.9844 104.719 81.0312 106.031 81.0312H107.531C109.438 81.0312 111.031 80.9375 112.312 80.75C113.625 80.5625 114.734 80.2031 115.641 79.6719C116.578 79.1406 117.391 78.4219 118.078 77.5156C118.766 76.6094 119.438 75.4219 120.094 73.9531H121.641L119.203 83ZM160.219 83H146.578V82.0156C147.047 82.0156 147.438 82.0156 147.75 82.0156C148.062 81.9844 148.312 81.9531 148.5 81.9219C148.719 81.8594 148.906 81.8125 149.062 81.7812C149.219 81.7188 149.375 81.6406 149.531 81.5469C149.781 81.3906 149.969 81.2031 150.094 80.9844C150.25 80.7344 150.328 80.4844 150.328 80.2344C150.328 79.3594 149.984 78.1406 149.297 76.5781L147.047 71.4688H133.078L130.594 77.7031C130.469 78.0469 130.359 78.4062 130.266 78.7812C130.203 79.125 130.172 79.4688 130.172 79.8125C130.172 80.5312 130.453 81.0781 131.016 81.4531C131.578 81.8281 132.516 82.0156 133.828 82.0156V83H123.188V82.0156C123.844 81.9844 124.406 81.875 124.875 81.6875C125.344 81.5 125.812 81.1094 126.281 80.5156C126.75 79.8906 127.25 79.0156 127.781 77.8906C128.344 76.7344 129.047 75.1719 129.891 73.2031L141 46.9531H142.031L155.391 77.3281C155.828 78.3281 156.203 79.125 156.516 79.7188C156.859 80.3125 157.203 80.7812 157.547 81.125C157.891 81.4375 158.266 81.6562 158.672 81.7812C159.109 81.9062 159.625 81.9844 160.219 82.0156V83ZM146.344 69.3125L140.156 54.5469L133.969 69.3125H146.344ZM195.844 83H187.219L174.469 66.5L171.516 66.6406V77.2344C171.516 78.1719 171.562 78.9375 171.656 79.5312C171.781 80.125 172.016 80.6094 172.359 80.9844C172.703 81.3281 173.188 81.5781 173.812 81.7344C174.438 81.8594 175.266 81.9531 176.297 82.0156V83H161.484V82.0156C162.484 81.9219 163.281 81.7969 163.875 81.6406C164.5 81.4844 164.969 81.2188 165.281 80.8438C165.594 80.4688 165.797 79.9531 165.891 79.2969C165.984 78.6094 166.031 77.7031 166.031 76.5781V53.4219C166.031 52.4844 165.984 51.7344 165.891 51.1719C165.797 50.5781 165.594 50.1094 165.281 49.7656C164.969 49.4219 164.5 49.1719 163.875 49.0156C163.281 48.8594 162.484 48.7344 161.484 48.6406V47.5625H176.25C178.875 47.5625 181.219 47.9219 183.281 48.6406C185.375 49.3281 186.922 50.2656 187.922 51.4531C188.578 52.1719 189.062 53.0156 189.375 53.9844C189.688 54.9219 189.844 55.9375 189.844 57.0312C189.844 59.4688 189.078 61.3906 187.547 62.7969C186.047 64.2031 183.594 65.25 180.188 65.9375L191.203 79.5312C191.953 80.4062 192.656 81.0156 193.312 81.3594C194 81.7031 194.844 81.9219 195.844 82.0156V83ZM171.516 64.6719C172.766 64.6406 173.844 64.5938 174.75 64.5312C175.688 64.4688 176.5 64.375 177.188 64.25C177.906 64.0938 178.562 63.9062 179.156 63.6875C179.75 63.4688 180.359 63.1875 180.984 62.8438C181.953 62.3125 182.703 61.5312 183.234 60.5C183.766 59.4375 184.031 58.2344 184.031 56.8906C184.031 54.3594 183.234 52.5156 181.641 51.3594C180.078 50.1719 177.578 49.5781 174.141 49.5781C173.078 49.5781 172.375 49.7188 172.031 50C171.688 50.25 171.516 50.75 171.516 51.5V64.6719ZM225.797 83H196.922V82.0156C197.891 81.9531 198.672 81.8438 199.266 81.6875C199.891 81.5312 200.359 81.2812 200.672 80.9375C201.016 80.5938 201.25 80.125 201.375 79.5312C201.5 78.9375 201.562 78.1719 201.562 77.2344V53.4219C201.562 52.4844 201.5 51.7188 201.375 51.125C201.281 50.5312 201.062 50.0625 200.719 49.7188C200.375 49.375 199.891 49.125 199.266 48.9688C198.672 48.8125 197.891 48.7031 196.922 48.6406V47.5625H225.328L225.422 55.25H224.156C223.906 54.0312 223.625 53.0625 223.312 52.3438C223 51.5938 222.547 51.0156 221.953 50.6094C221.391 50.2031 220.625 49.9375 219.656 49.8125C218.719 49.6875 217.5 49.625 216 49.625H208.781C208.062 49.625 207.578 49.7344 207.328 49.9531C207.109 50.1719 207 50.6719 207 51.4531V63.3125H215.203C216.297 63.3125 217.188 63.25 217.875 63.125C218.562 63 219.109 62.7656 219.516 62.4219C219.953 62.0469 220.281 61.5312 220.5 60.875C220.719 60.2188 220.922 59.3438 221.109 58.25H222.375V70.6719H221.109C220.922 69.5469 220.719 68.6562 220.5 68C220.281 67.3125 219.969 66.7969 219.562 66.4531C219.156 66.0781 218.609 65.8281 217.922 65.7031C217.234 65.5781 216.328 65.5156 215.203 65.5156H207V78.7344C207 79.2656 207.031 79.6562 207.094 79.9062C207.156 80.1562 207.266 80.3438 207.422 80.4688C207.672 80.625 208.266 80.7656 209.203 80.8906C210.172 80.9844 211.312 81.0312 212.625 81.0312H214.125C216.031 81.0312 217.625 80.9375 218.906 80.75C220.219 80.5625 221.328 80.2031 222.234 79.6719C223.172 79.1406 223.984 78.4219 224.672 77.5156C225.359 76.6094 226.031 75.4219 226.688 73.9531H228.234L225.797 83ZM234.469 53.4219C234.469 52.4219 234.422 51.625 234.328 51.0312C234.234 50.4375 234.016 49.9844 233.672 49.6719C233.359 49.3281 232.891 49.0938 232.266 48.9688C231.672 48.8438 230.844 48.7344 229.781 48.6406V47.5625H244.219C247.562 47.5625 250.562 47.9688 253.219 48.7812C255.875 49.5625 258.109 50.7031 259.922 52.2031C261.766 53.7031 263.172 55.5469 264.141 57.7344C265.109 59.9219 265.594 62.3906 265.594 65.1406C265.594 67.8594 265.078 70.3906 264.047 72.7344C263.016 75.0781 261.562 77.0469 259.688 78.6406C258.031 80.0156 255.891 81.0938 253.266 81.875C250.672 82.625 247.891 83 244.922 83H229.781V82.0156C230.812 81.9531 231.625 81.8594 232.219 81.7344C232.844 81.5781 233.312 81.3281 233.625 80.9844C233.969 80.6094 234.188 80.125 234.281 79.5312C234.406 78.9375 234.469 78.1719 234.469 77.2344V53.4219ZM239.906 78.8281C239.906 79.7031 240.094 80.2969 240.469 80.6094C240.875 80.8906 241.594 81.0312 242.625 81.0312C245.031 81.0312 247.047 80.875 248.672 80.5625C250.328 80.2188 251.844 79.6406 253.219 78.8281C257.594 76.3281 259.781 71.8906 259.781 65.5156C259.781 62.5781 259.219 59.9688 258.094 57.6875C257 55.4062 255.375 53.5469 253.219 52.1094C251.906 51.2344 250.391 50.5938 248.672 50.1875C246.984 49.7812 244.969 49.5781 242.625 49.5781C241.562 49.5781 240.844 49.7188 240.469 50C240.094 50.2812 239.906 50.8281 239.906 51.6406V78.8281Z" fill="black"/>
<path d="M339.141 53.4219C339.141 52.4219 339.078 51.625 338.953 51.0312C338.859 50.4375 338.625 49.9688 338.25 49.625C337.875 49.2812 337.344 49.0469 336.656 48.9219C335.969 48.7969 335.062 48.7031 333.938 48.6406V47.5625H349.828V48.6406C348.703 48.6719 347.797 48.7656 347.109 48.9219C346.422 49.0469 345.891 49.2812 345.516 49.625C345.141 49.9688 344.891 50.4531 344.766 51.0781C344.641 51.6719 344.578 52.4531 344.578 53.4219V77.2344C344.578 78.2031 344.641 79 344.766 79.625C344.922 80.2188 345.188 80.6875 345.562 81.0312C345.938 81.375 346.469 81.625 347.156 81.7812C347.844 81.9062 348.734 81.9844 349.828 82.0156V83H333.938V82.0156C335.062 81.9844 335.969 81.9062 336.656 81.7812C337.344 81.625 337.859 81.375 338.203 81.0312C338.578 80.6875 338.828 80.2188 338.953 79.625C339.078 79.0312 339.141 78.2344 339.141 77.2344V53.4219ZM382.688 83.6094L359.016 54.1719V75.125C359.016 76.5 359.078 77.625 359.203 78.5C359.359 79.3438 359.625 80.0156 360 80.5156C360.375 81.0156 360.891 81.375 361.547 81.5938C362.203 81.8125 363.047 81.9531 364.078 82.0156V83H351.516V82.0156C352.609 81.9219 353.484 81.7812 354.141 81.5938C354.828 81.375 355.344 81.0156 355.688 80.5156C356.062 80.0156 356.312 79.3438 356.438 78.5C356.562 77.625 356.625 76.5 356.625 75.125V51.5938C356.094 50.9688 355.641 50.4688 355.266 50.0938C354.891 49.6875 354.516 49.3906 354.141 49.2031C353.766 48.9844 353.375 48.8438 352.969 48.7812C352.562 48.6875 352.078 48.6406 351.516 48.6406V47.5625H360.656L381.234 73.4844V55.4375C381.234 52.1875 380.719 50.1875 379.688 49.4375C379.281 49.1875 378.828 49.0156 378.328 48.9219C377.859 48.7969 377.125 48.7031 376.125 48.6406V47.5625H388.641V48.6406C387.641 48.7031 386.891 48.8125 386.391 48.9688C385.922 49.125 385.516 49.3281 385.172 49.5781C384.109 50.2656 383.578 52.2188 383.578 55.4375V83.6094H382.688ZM427.359 83H413.719V82.0156C414.188 82.0156 414.578 82.0156 414.891 82.0156C415.203 81.9844 415.453 81.9531 415.641 81.9219C415.859 81.8594 416.047 81.8125 416.203 81.7812C416.359 81.7188 416.516 81.6406 416.672 81.5469C416.922 81.3906 417.109 81.2031 417.234 80.9844C417.391 80.7344 417.469 80.4844 417.469 80.2344C417.469 79.3594 417.125 78.1406 416.438 76.5781L414.188 71.4688H400.219L397.734 77.7031C397.609 78.0469 397.5 78.4062 397.406 78.7812C397.344 79.125 397.312 79.4688 397.312 79.8125C397.312 80.5312 397.594 81.0781 398.156 81.4531C398.719 81.8281 399.656 82.0156 400.969 82.0156V83H390.328V82.0156C390.984 81.9844 391.547 81.875 392.016 81.6875C392.484 81.5 392.953 81.1094 393.422 80.5156C393.891 79.8906 394.391 79.0156 394.922 77.8906C395.484 76.7344 396.188 75.1719 397.031 73.2031L408.141 46.9531H409.172L422.531 77.3281C422.969 78.3281 423.344 79.125 423.656 79.7188C424 80.3125 424.344 80.7812 424.688 81.125C425.031 81.4375 425.406 81.6562 425.812 81.7812C426.25 81.9062 426.766 81.9844 427.359 82.0156V83ZM413.484 69.3125L407.297 54.5469L401.109 69.3125H413.484ZM459.562 83.6094L435.891 54.1719V75.125C435.891 76.5 435.953 77.625 436.078 78.5C436.234 79.3438 436.5 80.0156 436.875 80.5156C437.25 81.0156 437.766 81.375 438.422 81.5938C439.078 81.8125 439.922 81.9531 440.953 82.0156V83H428.391V82.0156C429.484 81.9219 430.359 81.7812 431.016 81.5938C431.703 81.375 432.219 81.0156 432.562 80.5156C432.938 80.0156 433.188 79.3438 433.312 78.5C433.438 77.625 433.5 76.5 433.5 75.125V51.5938C432.969 50.9688 432.516 50.4688 432.141 50.0938C431.766 49.6875 431.391 49.3906 431.016 49.2031C430.641 48.9844 430.25 48.8438 429.844 48.7812C429.438 48.6875 428.953 48.6406 428.391 48.6406V47.5625H437.531L458.109 73.4844V55.4375C458.109 52.1875 457.594 50.1875 456.562 49.4375C456.156 49.1875 455.703 49.0156 455.203 48.9219C454.734 48.7969 454 48.7031 453 48.6406V47.5625H465.516V48.6406C464.516 48.7031 463.766 48.8125 463.266 48.9688C462.797 49.125 462.391 49.3281 462.047 49.5781C460.984 50.2656 460.453 52.2188 460.453 55.4375V83.6094H459.562ZM498.328 58.9062C498.078 58.0312 497.828 57.2812 497.578 56.6562C497.328 56 497.062 55.4219 496.781 54.9219C496.531 54.3906 496.234 53.9219 495.891 53.5156C495.578 53.1094 495.203 52.6875 494.766 52.25C493.703 51.1562 492.484 50.3438 491.109 49.8125C489.766 49.25 488.328 48.9688 486.797 48.9688C484.859 48.9688 483.094 49.3438 481.5 50.0938C479.938 50.8438 478.594 51.9219 477.469 53.3281C476.375 54.7031 475.531 56.375 474.938 58.3438C474.344 60.3125 474.047 62.5 474.047 64.9062C474.047 68.0312 474.469 70.7656 475.312 73.1094C476.156 75.4531 477.359 77.2812 478.922 78.5938C481.266 80.4688 484.062 81.4062 487.312 81.4062C489.531 81.4062 491.578 80.9844 493.453 80.1406C495.328 79.2969 497.266 77.9219 499.266 76.0156L500.203 76.9531C498.578 79.1094 496.5 80.7812 493.969 81.9688C491.469 83.1562 488.688 83.75 485.625 83.75C482.969 83.75 480.547 83.3125 478.359 82.4375C476.172 81.5625 474.297 80.3438 472.734 78.7812C471.172 77.1875 469.953 75.2812 469.078 73.0625C468.234 70.8438 467.812 68.375 467.812 65.6562C467.812 62.5625 468.344 59.7812 469.406 57.3125C470.469 54.8125 472.031 52.7188 474.094 51.0312C475.719 49.7188 477.547 48.7031 479.578 47.9844C481.609 47.2344 483.656 46.8594 485.719 46.8594C488.375 46.8594 491 47.2969 493.594 48.1719C494.469 48.4844 495.172 48.6406 495.703 48.6406C496.234 48.6406 496.688 48.4844 497.062 48.1719C497.469 47.8594 497.75 47.4219 497.906 46.8594H499.031L499.547 58.9062H498.328ZM531.562 83H502.688V82.0156C503.656 81.9531 504.438 81.8438 505.031 81.6875C505.656 81.5312 506.125 81.2812 506.438 80.9375C506.781 80.5938 507.016 80.125 507.141 79.5312C507.266 78.9375 507.328 78.1719 507.328 77.2344V53.4219C507.328 52.4844 507.266 51.7188 507.141 51.125C507.047 50.5312 506.828 50.0625 506.484 49.7188C506.141 49.375 505.656 49.125 505.031 48.9688C504.438 48.8125 503.656 48.7031 502.688 48.6406V47.5625H531.094L531.188 55.25H529.922C529.672 54.0312 529.391 53.0625 529.078 52.3438C528.766 51.5938 528.312 51.0156 527.719 50.6094C527.156 50.2031 526.391 49.9375 525.422 49.8125C524.484 49.6875 523.266 49.625 521.766 49.625H514.547C513.828 49.625 513.344 49.7344 513.094 49.9531C512.875 50.1719 512.766 50.6719 512.766 51.4531V63.3125H520.969C522.062 63.3125 522.953 63.25 523.641 63.125C524.328 63 524.875 62.7656 525.281 62.4219C525.719 62.0469 526.047 61.5312 526.266 60.875C526.484 60.2188 526.688 59.3438 526.875 58.25H528.141V70.6719H526.875C526.688 69.5469 526.484 68.6562 526.266 68C526.047 67.3125 525.734 66.7969 525.328 66.4531C524.922 66.0781 524.375 65.8281 523.688 65.7031C523 65.5781 522.094 65.5156 520.969 65.5156H512.766V78.7344C512.766 79.2656 512.797 79.6562 512.859 79.9062C512.922 80.1562 513.031 80.3438 513.188 80.4688C513.438 80.625 514.031 80.7656 514.969 80.8906C515.938 80.9844 517.078 81.0312 518.391 81.0312H519.891C521.797 81.0312 523.391 80.9375 524.672 80.75C525.984 80.5625 527.094 80.2031 528 79.6719C528.938 79.1406 529.75 78.4219 530.438 77.5156C531.125 76.6094 531.797 75.4219 532.453 73.9531H534L531.562 83Z" fill="black"/>
</svg>
